<svg xmlns="http://www.w3.org/2000/svg" width="256" height="256" viewBox="0 0 256 256">
  <!-- 康乃馨-开花: 锯齿花瓣 -->
  <path d="M128 200 Q122 150 128 110" stroke="#228B22" stroke-width="5" fill="none"/>
  <!-- 花萼 -->
  <rect x="120" y="100" width="16" height="15" rx="3" fill="#2E8B57"/>
  <!-- 花瓣层 外 -->
  <path d="M100 80 Q108 55 118 75 Q124 50 134 72 Q140 48 150 72 Q158 52 160 80 Q150 90 128 92 Q106 90 100 80Z" fill="#FF69B4"/>
  <!-- 花瓣层 中 -->
  <path d="M106 78 Q112 58 120 74 Q126 56 134 72 Q140 54 148 72 Q154 56 152 80 Q142 88 128 88 Q114 86 106 78Z" fill="#FF1493"/>
  <!-- 花瓣层 内 -->
  <path d="M112 76 Q118 62 124 73 Q128 60 134 72 Q138 58 142 74 Q148 60 146 78 Q138 84 128 84 Q118 82 112 76Z" fill="#C71585"/>
  <!-- 叶子 -->
  <ellipse cx="98" cy="155" rx="18" ry="7" fill="#228B22" transform="rotate(-30 98 155)"/>
  <ellipse cx="158" cy="155" rx="18" ry="7" fill="#228B22" transform="rotate(30 158 155)"/>
</svg>
