<svg xmlns="http://www.w3.org/2000/svg" width="256" height="256" viewBox="0 0 256 256">
  <!-- 玫瑰-开花 -->
  <path d="M128 200 Q120 150 128 120" stroke="#228B22" stroke-width="6" fill="none"/>
  <!-- 花瓣 -->
  <ellipse cx="128" cy="80" rx="30" ry="40" fill="#DC143C"/>
  <ellipse cx="108" cy="90" rx="25" ry="35" fill="#E74C3C" transform="rotate(-20 108 90)"/>
  <ellipse cx="148" cy="90" rx="25" ry="35" fill="#E74C3C" transform="rotate(20 148 90)"/>
  <ellipse cx="115" cy="70" rx="20" ry="30" fill="#FF6B6B" transform="rotate(-10 115 70)"/>
  <ellipse cx="141" cy="70" rx="20" ry="30" fill="#FF6B6B" transform="rotate(10 141 70)"/>
  <!-- 花心 -->
  <circle cx="128" cy="75" r="12" fill="#8B0000"/>
  <circle cx="124" cy="72" r="3" fill="#FFB6C1"/>
  <circle cx="132" cy="72" r="3" fill="#FFB6C1"/>
  <circle cx="128" cy="78" r="3" fill="#FFB6C1"/>
  <!-- 叶子 -->
  <ellipse cx="100" cy="140" rx="20" ry="10" fill="#228B22" transform="rotate(-30 100 140)"/>
  <ellipse cx="156" cy="140" rx="20" ry="10" fill="#228B22" transform="rotate(30 156 140)"/>
</svg>
