<svg xmlns="http://www.w3.org/2000/svg" width="256" height="256" viewBox="0 0 256 256">
  <!-- 万寿菊-开花 -->
  <path d="M128 200 Q124 150 128 126" stroke="#228B22" stroke-width="6" fill="none"/>
  <ellipse cx="128" cy="45" rx="14" ry="30" fill="#FFE082"/>
  <ellipse cx="128" cy="115" rx="14" ry="30" fill="#FFE082"/>
  <ellipse cx="78" cy="80" rx="14" ry="30" fill="#FFB300" transform="rotate(-60 78 80)"/>
  <ellipse cx="178" cy="80" rx="14" ry="30" fill="#FFB300" transform="rotate(60 178 80)"/>
  <ellipse cx="93" cy="52" rx="14" ry="28" fill="#FFE082" transform="rotate(-30 93 52)"/>
  <ellipse cx="163" cy="52" rx="14" ry="28" fill="#FFE082" transform="rotate(30 163 52)"/>
  <circle cx="128" cy="80" r="16" fill="#E65100"/>
  <circle cx="123" cy="76" r="3" fill="#FFB300"/>
  <circle cx="133" cy="76" r="3" fill="#FFB300"/>
  <circle cx="128" cy="84" r="3" fill="#FFB300"/>
  <ellipse cx="101" cy="146" rx="20" ry="10" fill="#228B22" transform="rotate(-30 101 146)"/>
  <ellipse cx="149" cy="146" rx="20" ry="10" fill="#228B22" transform="rotate(30 149 146)"/>
</svg>