<svg xmlns="http://www.w3.org/2000/svg" width="256" height="256" viewBox="0 0 256 256">
  <!-- 绣球-开花 -->
  <path d="M128 200 Q128 150 128 122" stroke="#228B22" stroke-width="5" fill="none"/>
  <ellipse cx="128" cy="85" rx="35" ry="25" fill="#90CAF9"/>
  <ellipse cx="128" cy="65" rx="28" ry="30" fill="#64B5F6"/>
  <path d="M100 85 Q108 110 128 115 Q148 110 156 85" fill="#90CAF9"/>
  <ellipse cx="115" cy="60" rx="18" ry="22" fill="#90CAF9" transform="rotate(-15 115 60)"/>
  <ellipse cx="141" cy="60" rx="18" ry="22" fill="#90CAF9" transform="rotate(15 141 60)"/>
  <circle cx="128" cy="70" r="8" fill="#1976D2"/>
  <circle cx="125" cy="68" r="2" fill="#90CAF9"/>
  <circle cx="131" cy="68" r="2" fill="#90CAF9"/>
  <ellipse cx="97" cy="157" rx="20" ry="10" fill="#228B22" transform="rotate(-30 97 157)"/>
  <ellipse cx="153" cy="157" rx="20" ry="10" fill="#228B22" transform="rotate(30 153 157)"/>
</svg>